<svg 
 xmlns="http://www.w3.org/2000/svg"
 xmlns:xlink="http://www.w3.org/1999/xlink"
 width="70px" height="70px">
<path fill-rule="evenodd"  fill="none"
 d="M-0.000,-0.000 L70.000,-0.000 L70.000,70.000 L-0.000,70.000 L-0.000,-0.000 Z"/>
<path fill-rule="evenodd"  fill="rgb(35, 113, 201)"
 d="M60.040,62.962 C59.923,62.988 59.802,63.001 59.680,63.001 C59.086,63.002 58.565,62.692 58.404,62.243 L41.170,14.323 C40.970,13.769 41.379,13.193 42.084,13.037 C42.789,12.880 43.522,13.202 43.721,13.756 L60.955,61.676 C61.154,62.230 60.745,62.805 60.040,62.962 ZM30.514,63.002 C29.782,63.002 29.188,62.535 29.188,61.960 L29.188,53.625 C29.188,53.051 29.782,52.584 30.514,52.584 C31.247,52.584 31.840,53.051 31.840,53.625 L31.840,61.960 C31.840,62.535 31.247,63.002 30.514,63.002 ZM30.514,46.334 C29.782,46.334 29.188,45.867 29.188,45.292 L29.188,36.958 C29.188,36.382 29.782,35.916 30.514,35.916 C31.247,35.916 31.840,36.382 31.840,36.958 L31.840,45.292 C31.840,45.867 31.247,46.334 30.514,46.334 ZM30.514,29.665 C29.782,29.665 29.188,29.199 29.188,28.624 L29.188,22.373 C29.188,21.798 29.782,21.331 30.514,21.331 C31.247,21.331 31.840,21.798 31.840,22.373 L31.840,28.624 C31.840,29.199 31.247,29.665 30.514,29.665 ZM30.514,17.165 C29.782,17.165 29.188,16.698 29.188,16.123 L29.188,14.040 C29.188,13.464 29.782,12.998 30.514,12.998 C31.247,12.998 31.840,13.464 31.840,14.040 L31.840,16.123 C31.840,16.698 31.247,17.165 30.514,17.165 ZM2.624,62.243 C2.463,62.692 1.942,63.001 1.349,63.002 C1.227,63.001 1.105,62.987 0.988,62.961 C0.284,62.804 -0.126,62.229 0.074,61.676 L17.308,13.755 C17.506,13.202 18.239,12.880 18.944,13.036 C19.647,13.193 20.057,13.768 19.858,14.322 L2.624,62.243 Z"/>
</svg>