<svg 
 xmlns="http://www.w3.org/2000/svg"
 xmlns:xlink="http://www.w3.org/1999/xlink"
 width="30px" height="22px">
<path fill-rule="evenodd"  opacity="0.502" fill="none"
 d="M-0.000,-0.000 L30.000,-0.000 L30.000,22.000 L-0.000,22.000 L-0.000,-0.000 Z"/>
<path fill-rule="evenodd"  fill="rgb(35, 113, 201)"
 d="M23.999,11.999 L23.999,13.998 L23.999,15.998 L23.999,17.998 L24.624,17.998 L25.999,17.998 L25.999,21.998 L21.999,21.998 L21.999,20.623 L21.999,19.998 L19.999,19.998 L17.998,19.998 L15.999,19.998 L13.999,19.998 L7.998,19.998 L7.998,20.665 L7.998,21.998 L3.998,21.998 L3.998,17.998 L5.332,17.998 L5.998,17.998 L5.998,15.998 L5.998,13.998 L5.998,11.999 L5.998,9.998 L5.998,3.998 L5.332,3.998 L3.998,3.998 L3.998,-0.001 L7.998,-0.001 L7.998,1.331 L7.998,1.998 L13.999,1.998 L15.999,1.998 L17.998,1.998 L19.999,1.998 L21.999,1.998 L21.999,1.331 L21.999,-0.001 L25.999,-0.001 L25.999,3.998 L24.665,3.998 L23.999,3.998 L23.999,9.998 L23.999,11.999 ZM21.999,15.998 L21.999,13.998 L21.999,11.999 L21.999,9.998 L21.999,3.998 L19.999,3.998 L17.998,3.998 L15.999,3.998 L13.999,3.998 L7.998,3.998 L7.998,9.998 L7.998,11.999 L7.998,13.998 L7.998,15.998 L7.998,17.998 L13.999,17.998 L15.999,17.998 L17.998,17.998 L19.999,17.998 L21.999,17.998 L21.999,15.998 ZM15.999,13.998 L13.999,13.998 L13.999,11.999 L11.999,11.999 L11.999,9.998 L13.999,9.998 L13.999,7.998 L15.999,7.998 L15.999,9.998 L17.998,9.998 L17.998,11.999 L15.999,11.999 L15.999,13.998 Z"/>
</svg>