<svg 
 xmlns="http://www.w3.org/2000/svg"
 xmlns:xlink="http://www.w3.org/1999/xlink"
 width="70px" height="70px">
<path fill-rule="evenodd"  fill="rgb(0, 0, 0)"
 d="M51.217,34.629 C51.161,34.636 51.112,34.643 51.056,34.643 C50.603,34.643 50.206,34.322 50.129,33.862 C49.578,30.617 48.044,27.657 45.686,25.303 C43.328,22.956 40.364,21.416 37.113,20.866 C36.598,20.776 36.256,20.295 36.339,19.779 C36.430,19.271 36.911,18.923 37.421,19.014 C41.061,19.633 44.375,21.347 47.011,23.979 C49.648,26.612 51.363,29.920 51.984,33.556 C52.075,34.064 51.726,34.552 51.217,34.629 ZM37.162,24.996 C39.373,25.372 41.390,26.417 42.987,28.012 C44.583,29.607 45.630,31.620 46.007,33.828 C46.091,34.343 45.748,34.830 45.232,34.914 C45.176,34.921 45.128,34.928 45.072,34.928 C44.619,34.928 44.221,34.608 44.145,34.148 C43.831,32.323 42.973,30.666 41.647,29.343 C40.322,28.019 38.662,27.155 36.834,26.849 C36.318,26.765 35.984,26.271 36.074,25.762 C36.166,25.253 36.646,24.913 37.162,24.996 ZM30.913,31.202 C30.396,31.724 29.866,32.268 29.295,32.790 C29.719,33.730 30.306,34.657 31.177,35.757 C32.977,37.964 34.853,39.671 36.918,40.981 C37.120,41.106 37.358,41.224 37.608,41.349 C37.783,41.440 37.964,41.531 38.145,41.628 L40.350,39.434 C41.054,38.731 41.878,38.362 42.735,38.362 C43.600,38.362 44.416,38.738 45.093,39.441 L48.922,43.279 C49.627,43.976 49.997,44.804 49.997,45.668 C49.997,46.525 49.634,47.360 48.943,48.078 C48.644,48.391 48.337,48.691 48.037,48.976 C47.597,49.401 47.179,49.798 46.816,50.237 C46.809,50.250 46.794,50.258 46.788,50.272 C45.727,51.421 44.375,51.999 42.763,51.999 C42.624,51.999 42.470,51.992 42.324,51.985 C39.932,51.832 37.790,50.933 36.186,50.174 C31.987,48.147 28.310,45.271 25.255,41.628 C22.738,38.605 21.050,35.785 19.920,32.741 C19.460,31.502 18.860,29.607 19.027,27.573 C19.138,26.313 19.647,25.226 20.540,24.334 L22.912,21.945 C22.919,21.939 22.919,21.939 22.926,21.932 C23.623,21.263 24.447,20.908 25.298,20.908 C26.149,20.908 26.958,21.263 27.634,21.932 C28.088,22.350 28.527,22.795 28.945,23.227 C29.155,23.450 29.378,23.673 29.594,23.889 L31.499,25.791 C32.964,27.253 32.964,29.147 31.499,30.610 C31.303,30.805 31.108,31.007 30.913,31.202 ZM30.173,27.120 L28.268,25.219 C28.046,24.989 27.822,24.766 27.606,24.544 C27.181,24.105 26.776,23.694 26.351,23.297 C26.344,23.290 26.337,23.283 26.330,23.276 C26.107,23.053 25.751,22.789 25.311,22.789 C24.956,22.789 24.593,22.962 24.252,23.283 L21.873,25.658 C21.294,26.236 20.980,26.911 20.911,27.727 C20.805,29.001 21.043,30.352 21.691,32.086 C22.744,34.928 24.336,37.574 26.714,40.437 C29.594,43.871 33.061,46.581 37.008,48.489 C38.453,49.178 40.378,49.986 42.449,50.119 C42.553,50.126 42.665,50.126 42.770,50.126 C43.858,50.126 44.688,49.770 45.392,49.018 C45.826,48.509 46.286,48.057 46.739,47.625 C47.039,47.333 47.318,47.068 47.590,46.775 C48.301,46.037 48.301,45.306 47.583,44.595 L43.740,40.758 C43.733,40.751 43.733,40.751 43.726,40.744 C43.510,40.507 43.154,40.235 42.721,40.235 C42.282,40.235 41.905,40.521 41.668,40.758 L39.282,43.140 C39.163,43.258 38.801,43.620 38.222,43.620 C37.992,43.620 37.768,43.564 37.532,43.446 C37.504,43.432 37.476,43.411 37.448,43.397 C37.246,43.272 37.008,43.154 36.757,43.028 C36.479,42.889 36.186,42.743 35.900,42.561 C33.661,41.148 31.631,39.302 29.706,36.934 L29.699,36.927 C28.638,35.583 27.941,34.454 27.446,33.257 C27.438,33.236 27.432,33.215 27.425,33.194 C27.299,32.797 27.188,32.212 27.788,31.613 C27.795,31.599 27.809,31.592 27.822,31.578 C28.429,31.035 28.988,30.478 29.573,29.879 C29.776,29.683 29.971,29.482 30.173,29.279 C30.913,28.542 30.913,27.859 30.173,27.120 Z"/>
</svg>