<svg 
 xmlns="http://www.w3.org/2000/svg"
 xmlns:xlink="http://www.w3.org/1999/xlink"
 width="24px" height="34px">
<path fill-rule="evenodd"  fill="rgb(242, 84, 84)"
 d="M11.998,-0.002 C5.381,-0.002 -0.002,5.360 -0.002,11.950 C-0.002,20.128 10.737,32.134 11.195,32.641 C11.623,33.117 12.373,33.116 12.801,32.641 C13.259,32.134 23.999,20.128 23.999,11.950 C23.999,5.360 18.615,-0.002 11.998,-0.002 ZM11.998,17.962 C8.669,17.962 5.961,15.265 5.961,11.950 C5.961,8.634 8.669,5.937 11.998,5.937 C15.327,5.937 18.036,8.634 18.036,11.950 C18.036,15.265 15.327,17.962 11.998,17.962 Z"/>
</svg>