<svg 
 xmlns="http://www.w3.org/2000/svg"
 xmlns:xlink="http://www.w3.org/1999/xlink"
 width="70px" height="70px">
<path fill-rule="evenodd"  fill="none"
 d="M-0.000,-0.000 L70.000,-0.000 L70.000,70.000 L-0.000,70.000 L-0.000,-0.000 Z"/>
<path fill-rule="evenodd"  fill="rgb(35, 113, 201)"
 d="M59.981,52.690 L47.782,52.690 C47.221,52.690 46.766,52.234 46.766,51.672 L46.766,47.598 C46.766,47.035 46.310,46.579 45.748,46.579 L39.117,46.579 C38.660,47.134 38.152,47.644 37.597,48.102 C32.837,52.029 25.800,51.348 21.880,46.579 L6.099,46.579 L6.099,49.634 C6.096,52.446 3.822,54.724 1.015,54.727 C0.454,54.727 -0.001,54.272 -0.001,53.708 L-0.001,25.190 C-0.001,24.627 0.454,24.172 1.015,24.172 C3.822,24.175 6.096,26.453 6.099,29.264 L6.099,32.320 L21.879,32.320 C23.321,30.563 25.265,29.291 27.448,28.673 L27.448,23.153 L24.399,23.153 C24.110,23.539 23.767,23.882 23.382,24.172 C21.136,25.859 17.949,25.403 16.265,23.153 C14.581,20.903 15.036,17.711 17.282,16.024 C19.528,14.336 22.714,14.792 24.399,17.042 L36.599,17.042 C36.888,16.656 37.230,16.313 37.615,16.024 C39.862,14.336 43.047,14.792 44.732,17.042 C46.416,19.292 45.961,22.484 43.715,24.172 C41.469,25.859 38.283,25.403 36.599,23.153 L33.548,23.153 L33.548,28.673 C35.733,29.291 37.676,30.563 39.118,32.320 L49.815,32.320 C55.989,32.326 60.991,37.339 60.999,43.524 L60.999,51.672 C60.999,52.234 60.543,52.690 59.981,52.690 ZM4.065,29.264 C4.064,27.970 3.250,26.816 2.032,26.383 L2.032,52.516 C3.250,52.083 4.064,50.929 4.065,49.634 L4.065,29.264 ZM37.147,21.116 C37.511,21.116 37.847,21.310 38.030,21.626 C38.297,22.090 38.682,22.476 39.146,22.744 C40.604,23.588 42.470,23.087 43.312,21.626 C44.154,20.164 43.654,18.295 42.195,17.452 C40.737,16.608 38.871,17.109 38.030,18.570 C37.847,18.886 37.511,19.079 37.147,19.079 L23.849,19.079 C23.486,19.079 23.150,18.886 22.969,18.570 C22.700,18.105 22.315,17.720 21.852,17.452 C20.392,16.608 18.527,17.109 17.686,18.570 C16.843,20.032 17.343,21.900 18.802,22.744 C20.261,23.588 22.126,23.087 22.969,21.626 C23.150,21.310 23.486,21.116 23.849,21.116 L28.466,21.116 C29.027,21.116 29.482,21.572 29.482,22.134 L29.482,28.292 C29.820,28.261 30.158,28.246 30.498,28.246 C30.838,28.246 31.178,28.261 31.515,28.292 L31.515,22.134 C31.515,21.572 31.970,21.116 32.532,21.116 L37.147,21.116 ZM58.965,43.524 C58.959,38.463 54.866,34.363 49.815,34.357 L38.619,34.357 C38.300,34.357 37.999,34.205 37.806,33.950 C36.470,32.154 34.520,30.914 32.329,30.466 C32.029,30.405 31.726,30.359 31.421,30.330 C30.502,30.238 29.574,30.283 28.669,30.466 C26.476,30.912 24.526,32.153 23.189,33.950 C22.997,34.205 22.695,34.357 22.375,34.357 L6.099,34.357 L6.099,44.542 L22.375,44.542 C22.695,44.542 22.997,44.693 23.189,44.950 C23.711,45.649 24.331,46.269 25.029,46.793 C29.066,49.819 34.788,48.994 37.809,44.950 C38.000,44.693 38.302,44.542 38.621,44.542 L45.748,44.542 C47.433,44.542 48.799,45.910 48.799,47.598 L48.799,50.653 L58.965,50.653 L58.965,43.524 ZM54.210,53.986 C54.649,53.605 55.311,53.652 55.692,54.091 C56.234,54.769 60.999,60.812 60.999,63.894 C60.999,67.269 58.267,70.005 54.899,70.005 C51.530,70.005 48.799,67.269 48.799,63.894 C48.799,60.812 53.563,54.769 54.106,54.091 C54.137,54.053 54.173,54.018 54.210,53.986 ZM54.899,67.967 C57.145,67.967 58.965,66.144 58.965,63.894 C58.965,62.344 56.721,58.830 54.899,56.392 C53.077,58.830 50.832,62.344 50.832,63.894 C50.832,66.144 52.652,67.967 54.899,67.967 Z"/>
</svg>