<svg 
 xmlns="http://www.w3.org/2000/svg"
 xmlns:xlink="http://www.w3.org/1999/xlink"
 width="70px" height="70px">
<path fill-rule="evenodd"  fill="none"
 d="M-0.000,-0.000 L70.000,-0.000 L70.000,70.000 L-0.000,70.000 L-0.000,-0.000 Z"/>
<path fill-rule="evenodd"  fill="rgb(35, 113, 201)"
 d="M47.999,38.594 L47.999,37.594 C47.999,35.936 46.656,34.592 44.999,34.592 C43.345,34.600 42.007,35.939 41.999,37.594 L41.999,38.594 L38.478,38.594 C37.929,37.921 37.298,37.319 36.598,36.803 C36.398,36.652 36.198,36.512 35.999,36.383 L35.999,31.591 L37.998,31.591 C39.652,31.582 40.990,30.244 40.999,28.589 C40.999,26.931 39.655,25.588 37.998,25.588 L33.999,25.588 L33.999,23.586 L35.999,23.586 C36.551,23.586 36.999,23.138 36.999,22.585 L36.999,19.584 L42.998,19.584 C44.655,19.584 45.999,18.240 45.999,16.582 C45.999,14.925 44.655,13.581 42.998,13.581 L16.999,13.581 C15.342,13.581 13.999,14.925 13.999,16.582 C13.999,18.240 15.342,19.584 16.999,19.584 L22.998,19.584 L22.998,22.585 C22.998,23.138 23.446,23.586 23.999,23.586 L25.999,23.586 L25.999,25.588 L21.998,25.588 C20.345,25.596 19.007,26.934 18.998,28.589 C18.998,30.247 20.342,31.591 21.998,31.591 L23.999,31.591 L23.999,36.383 C23.799,36.512 23.599,36.650 23.406,36.798 C22.704,37.315 22.070,37.919 21.520,38.594 L17.999,38.594 L17.999,37.594 C17.990,35.939 16.652,34.600 14.999,34.592 C13.342,34.592 11.998,35.936 11.998,37.594 L11.998,38.594 L-0.002,38.594 L-0.002,52.602 L11.998,52.602 L11.998,53.603 C11.998,55.260 13.342,56.604 14.999,56.604 C16.656,56.604 17.999,55.260 17.999,53.603 L17.999,52.602 L21.522,52.602 C25.378,57.286 32.299,57.956 36.981,54.098 C37.526,53.648 38.026,53.147 38.476,52.602 L41.999,52.602 L41.999,53.603 C41.999,55.260 43.341,56.604 44.999,56.604 C46.656,56.604 47.999,55.260 47.999,53.603 L47.999,52.602 L59.998,52.602 L59.998,38.594 L47.999,38.594 ZM11.998,50.601 L1.999,50.601 L1.999,40.595 L11.998,40.595 L11.998,50.601 ZM15.998,53.603 C15.998,54.155 15.550,54.603 14.999,54.603 C14.446,54.603 13.999,54.155 13.999,53.603 L13.999,37.594 C13.999,37.041 14.446,36.593 14.999,36.593 C15.268,36.592 15.526,36.704 15.711,36.900 C15.898,37.082 16.001,37.333 15.998,37.594 L15.998,53.603 ZM16.999,17.583 C16.446,17.583 15.998,17.135 15.998,16.582 C15.998,16.031 16.446,15.582 16.999,15.582 L42.998,15.582 C43.551,15.582 43.999,16.031 43.999,16.582 C43.999,17.135 43.551,17.583 42.998,17.583 L16.999,17.583 ZM24.999,21.585 L24.999,19.584 L34.999,19.584 L34.999,21.585 L24.999,21.585 ZM31.998,23.586 L31.998,25.588 L27.998,25.588 L27.998,23.586 L31.998,23.586 ZM21.998,29.589 C21.447,29.589 20.999,29.142 20.999,28.589 C20.998,28.319 21.108,28.062 21.305,27.877 C21.487,27.690 21.738,27.586 21.998,27.589 L37.998,27.589 C38.550,27.589 38.999,28.036 38.999,28.589 C38.999,28.859 38.889,29.117 38.692,29.302 C38.510,29.489 38.260,29.592 37.998,29.589 L21.998,29.589 ZM41.999,50.601 L37.988,50.601 C37.674,50.601 37.377,50.749 37.188,51.001 C34.217,54.974 28.590,55.785 24.619,52.812 C23.932,52.298 23.322,51.688 22.809,51.001 C22.620,50.749 22.323,50.601 22.009,50.601 L17.999,50.601 L17.999,40.595 L22.009,40.595 C22.325,40.594 22.621,40.443 22.809,40.189 C23.535,39.223 24.450,38.414 25.499,37.813 C25.809,37.634 26.000,37.302 25.999,36.944 L25.999,31.591 L33.999,31.591 L33.999,36.944 C33.998,37.302 34.188,37.634 34.498,37.813 C34.812,37.993 35.111,38.194 35.398,38.413 C36.078,38.914 36.677,39.513 37.176,40.192 C37.364,40.447 37.660,40.598 37.977,40.599 L41.999,40.599 L41.999,50.601 ZM45.999,53.603 C45.999,54.155 45.551,54.603 44.999,54.603 C44.446,54.603 43.999,54.155 43.999,53.603 L43.999,37.594 C43.998,37.324 44.109,37.066 44.305,36.882 C44.487,36.695 44.737,36.590 44.999,36.593 C45.551,36.593 45.999,37.041 45.999,37.594 L45.999,53.603 ZM57.999,50.601 L47.999,50.601 L47.999,40.595 L57.999,40.595 L57.999,50.601 Z"/>
</svg>