<svg 
 xmlns="http://www.w3.org/2000/svg"
 xmlns:xlink="http://www.w3.org/1999/xlink"
 width="70px" height="70px">
<path fill-rule="evenodd"  fill="none"
 d="M-0.000,-0.000 L70.000,-0.000 L70.000,70.000 L-0.000,70.000 L-0.000,-0.000 Z"/>
<path fill-rule="evenodd"  fill="rgb(35, 113, 201)"
 d="M47.991,26.988 C47.991,26.985 47.991,26.981 47.991,26.978 C47.981,26.884 47.957,26.794 47.922,26.710 C47.921,26.705 47.919,26.701 47.917,26.696 C47.882,26.615 47.837,26.540 47.783,26.473 C47.777,26.465 47.771,26.458 47.765,26.450 C47.732,26.411 47.697,26.376 47.658,26.343 C47.653,26.338 47.647,26.333 47.641,26.328 C47.623,26.313 47.604,26.299 47.585,26.286 C47.570,26.275 47.554,26.265 47.539,26.255 C47.516,26.241 47.492,26.227 47.467,26.215 C47.442,26.201 47.415,26.189 47.389,26.178 C47.381,26.175 47.374,26.171 47.366,26.168 L31.707,19.403 L31.707,13.982 L46.057,13.982 L46.057,18.069 C46.057,18.607 46.491,19.042 47.026,19.042 C47.562,19.042 47.996,18.607 47.996,18.069 L47.996,13.060 C47.997,13.043 47.999,13.026 47.999,13.008 C47.999,12.977 47.994,12.946 47.991,12.916 C47.991,12.912 47.991,12.910 47.991,12.906 C47.981,12.812 47.957,12.722 47.922,12.638 C47.920,12.633 47.919,12.628 47.917,12.624 C47.882,12.543 47.837,12.469 47.783,12.400 C47.776,12.393 47.771,12.386 47.765,12.378 C47.732,12.339 47.697,12.304 47.658,12.271 C47.653,12.267 47.647,12.261 47.641,12.256 C47.623,12.241 47.604,12.227 47.585,12.214 C47.570,12.203 47.554,12.193 47.539,12.183 C47.515,12.169 47.492,12.154 47.467,12.142 C47.441,12.129 47.415,12.117 47.389,12.106 C47.381,12.103 47.374,12.098 47.365,12.096 L31.121,5.078 C31.003,5.027 30.874,4.999 30.738,4.999 L17.257,4.999 C17.121,4.999 16.992,5.027 16.874,5.078 L0.595,12.110 C0.592,12.111 0.589,12.113 0.586,12.114 C0.575,12.119 0.566,12.124 0.556,12.129 C0.531,12.140 0.505,12.154 0.481,12.167 C0.464,12.178 0.447,12.188 0.431,12.198 C0.422,12.204 0.415,12.210 0.407,12.216 C0.390,12.228 0.374,12.239 0.358,12.252 C0.351,12.258 0.343,12.265 0.336,12.272 C0.321,12.285 0.306,12.298 0.292,12.312 C0.284,12.319 0.278,12.327 0.270,12.334 C0.257,12.348 0.244,12.362 0.232,12.376 C0.225,12.385 0.218,12.394 0.210,12.403 C0.199,12.417 0.189,12.431 0.178,12.445 C0.171,12.456 0.165,12.466 0.157,12.476 C0.149,12.490 0.140,12.505 0.132,12.519 C0.125,12.530 0.118,12.541 0.112,12.553 C0.104,12.568 0.097,12.584 0.089,12.599 C0.082,12.616 0.074,12.634 0.067,12.651 C0.060,12.671 0.052,12.691 0.045,12.712 C0.042,12.724 0.039,12.736 0.035,12.749 C0.030,12.765 0.026,12.783 0.022,12.800 C0.019,12.812 0.017,12.824 0.015,12.836 C0.012,12.855 0.009,12.873 0.006,12.892 C0.005,12.903 0.004,12.914 0.003,12.926 C0.001,12.947 -0.000,12.968 -0.000,12.989 C-0.001,12.996 -0.002,13.002 -0.002,13.008 L-0.002,18.069 C-0.002,18.607 0.433,19.042 0.968,19.042 C1.504,19.042 1.937,18.607 1.937,18.069 L1.937,13.982 L16.287,13.982 L16.287,19.403 L0.595,26.182 C0.592,26.183 0.589,26.184 0.586,26.186 C0.575,26.191 0.566,26.196 0.556,26.200 C0.531,26.212 0.505,26.225 0.481,26.240 C0.464,26.250 0.447,26.259 0.431,26.270 C0.422,26.276 0.415,26.282 0.407,26.288 C0.390,26.299 0.374,26.311 0.358,26.324 C0.351,26.330 0.343,26.337 0.336,26.343 C0.321,26.356 0.306,26.370 0.292,26.384 C0.284,26.391 0.278,26.398 0.270,26.406 C0.257,26.420 0.244,26.434 0.232,26.448 C0.225,26.457 0.218,26.466 0.210,26.475 C0.199,26.489 0.189,26.503 0.178,26.518 C0.171,26.528 0.165,26.537 0.157,26.548 C0.149,26.562 0.140,26.576 0.132,26.591 C0.125,26.602 0.118,26.613 0.112,26.625 C0.104,26.640 0.097,26.655 0.089,26.671 C0.082,26.688 0.074,26.705 0.067,26.723 C0.060,26.743 0.052,26.763 0.045,26.784 C0.042,26.796 0.039,26.808 0.035,26.820 C0.030,26.837 0.026,26.854 0.022,26.872 C0.019,26.884 0.017,26.895 0.015,26.908 C0.012,26.926 0.009,26.945 0.006,26.964 C0.005,26.975 0.004,26.986 0.003,26.998 C0.001,27.019 -0.000,27.039 -0.000,27.061 C-0.001,27.067 -0.002,27.074 -0.002,27.080 L-0.002,32.141 C-0.002,32.678 0.433,33.114 0.968,33.114 C1.504,33.114 1.937,32.678 1.937,32.141 L1.937,28.054 L15.937,28.054 L4.485,64.735 C4.484,64.738 4.484,64.741 4.483,64.745 C4.470,64.791 4.459,64.838 4.452,64.886 C4.452,64.889 4.450,64.893 4.450,64.897 C4.444,64.943 4.442,64.991 4.442,65.037 C4.443,65.046 4.442,65.055 4.443,65.065 C4.445,65.111 4.450,65.156 4.458,65.201 C4.459,65.209 4.461,65.216 4.463,65.224 C4.482,65.317 4.515,65.407 4.562,65.492 C4.565,65.499 4.568,65.505 4.572,65.512 C4.595,65.552 4.621,65.591 4.650,65.628 C4.655,65.635 4.661,65.642 4.666,65.648 C4.679,65.663 4.690,65.677 4.704,65.690 C4.719,65.709 4.737,65.724 4.754,65.740 C4.759,65.745 4.764,65.750 4.770,65.754 C4.806,65.788 4.845,65.817 4.886,65.843 C4.889,65.845 4.892,65.848 4.895,65.850 C4.899,65.852 4.904,65.854 4.908,65.857 C4.940,65.876 4.973,65.894 5.006,65.909 C5.012,65.912 5.017,65.915 5.021,65.917 C5.059,65.933 5.098,65.947 5.138,65.959 C5.147,65.962 5.156,65.963 5.164,65.966 C5.196,65.974 5.226,65.981 5.257,65.986 C5.268,65.987 5.280,65.989 5.292,65.991 C5.330,65.996 5.369,65.999 5.410,65.999 C5.619,65.999 5.827,65.932 6.001,65.797 C6.026,65.778 6.050,65.758 6.073,65.736 L33.687,39.784 L40.557,61.788 L24.496,46.513 C24.105,46.146 23.492,46.166 23.126,46.558 C22.761,46.951 22.781,47.567 23.172,47.934 L41.922,65.736 C42.106,65.909 42.345,65.999 42.584,65.999 C42.762,65.999 42.941,65.950 43.100,65.850 C43.472,65.614 43.641,65.156 43.509,64.735 L32.057,28.054 L46.057,28.054 L46.057,32.141 C46.057,32.678 46.491,33.114 47.026,33.114 C47.562,33.114 47.996,32.678 47.996,32.141 L47.996,27.131 C47.997,27.115 47.999,27.098 47.999,27.080 C47.999,27.049 47.994,27.018 47.991,26.988 ZM18.226,26.107 L18.226,21.018 L29.769,21.018 L29.769,26.107 L18.226,26.107 ZM31.708,12.035 L31.708,7.451 L42.321,12.035 L31.708,12.035 L31.708,12.035 ZM18.226,6.945 L29.769,6.945 L29.769,12.035 L18.226,12.035 L18.226,6.945 ZM5.675,12.035 L16.287,7.451 L16.287,12.035 L5.675,12.035 ZM29.769,13.982 L29.769,19.071 L18.226,19.071 L18.226,13.982 L29.769,13.982 ZM16.287,21.523 L16.287,26.107 L5.675,26.107 L16.287,21.523 ZM14.308,39.784 L22.579,47.558 L7.438,61.788 L14.308,39.784 ZM33.045,37.722 L23.997,46.224 L14.950,37.722 L17.969,28.054 L30.026,28.054 L33.045,37.722 ZM31.708,26.107 L31.708,21.523 L42.321,26.107 L31.708,26.107 Z"/>
</svg>