<svg 
 xmlns="http://www.w3.org/2000/svg"
 xmlns:xlink="http://www.w3.org/1999/xlink"
 width="20px" height="20px">
<path fill-rule="evenodd"  fill="none"
 d="M4.000,-0.000 L16.000,-0.000 C18.209,-0.000 20.000,1.791 20.000,4.000 L20.000,16.000 C20.000,18.209 18.209,20.000 16.000,20.000 L4.000,20.000 C1.791,20.000 -0.000,18.209 -0.000,16.000 L-0.000,4.000 C-0.000,1.791 1.791,-0.000 4.000,-0.000 Z"/>
<path fill-rule="evenodd"  fill="rgb(35, 113, 201)"
 d="M3.161,10.499 C3.053,10.399 2.999,10.249 2.999,10.149 C2.999,10.049 3.053,9.899 3.161,9.799 L3.912,9.099 C4.127,8.898 4.450,8.898 4.665,9.099 L4.719,9.149 L7.673,12.099 C7.780,12.199 7.941,12.199 8.048,12.099 L15.247,5.148 L15.301,5.148 L15.301,5.148 L15.301,5.148 C15.515,4.949 15.838,4.949 16.052,5.148 L16.805,5.849 C17.019,6.049 17.019,6.349 16.805,6.548 L16.805,6.548 L16.805,6.548 L8.210,14.849 C8.102,14.949 7.995,14.999 7.834,14.999 C7.673,14.999 7.565,14.949 7.458,14.849 L3.268,10.648 L3.161,10.499 Z"/>
</svg>