<svg 
 xmlns="http://www.w3.org/2000/svg"
 xmlns:xlink="http://www.w3.org/1999/xlink"
 width="30px" height="22px">
<path fill-rule="evenodd"  opacity="0.502" fill="none"
 d="M-0.000,-0.000 L30.000,-0.000 L30.000,22.000 L-0.000,22.000 L-0.000,-0.000 Z"/>
<path fill-rule="evenodd"  fill="rgb(35, 113, 201)"
 d="M-0.002,19.998 L-0.002,18.998 L-0.002,17.998 L-0.002,3.998 L-0.002,2.998 L-0.002,1.998 L29.999,1.998 L29.999,2.998 L29.999,3.998 L29.999,17.998 L29.999,18.998 L29.999,19.998 L-0.002,19.998 ZM27.999,3.998 L1.999,3.998 L1.999,17.998 L27.999,17.998 L27.999,3.998 ZM8.998,10.999 L8.998,11.999 L4.999,11.999 L4.999,10.999 L4.999,9.998 L8.998,9.998 L8.998,10.999 ZM15.154,6.999 C17.364,6.999 19.155,8.789 19.155,10.999 C19.155,13.207 17.364,14.998 15.154,14.998 C12.946,14.998 11.155,13.207 11.155,10.999 C11.155,8.789 12.946,6.999 15.154,6.999 ZM24.999,10.999 L24.999,11.999 L20.998,11.999 L20.998,10.999 L20.998,9.998 L24.999,9.998 L24.999,10.999 Z"/>
</svg>